<?xml version="1.0" encoding="UTF-8"?>
<svg id="White" xmlns="http://www.w3.org/2000/svg" viewBox="0 0 4251.97 1451.34">
  <defs>
    <style>
      .cls-1 {
        fill: #fff;
      }
    </style>
  </defs>
  <g id="Solid">
    <path id="H" class="cls-1" d="M1794.84,1103.33h40.55v196.45h-40.55v-82.05h-94v82.05h-40.55v-196.45h40.55v79.04h94v-79.04ZM1436.08,390.38c15.68,19.03,24.32,43.82,24.32,69.82v765.59c0,26-8.64,50.8-24.32,69.82-17.4,21.12-42.24,33.23-68.15,33.23H101.52c-25.9,0-50.74-12.11-68.15-33.23-15.68-19.02-24.32-43.82-24.32-69.82V460.21c0-26,8.64-50.8,24.32-69.82,17.34-21.04,42.06-33.14,67.87-33.23.43-.2,1.55-.95,2.81-2.66l153.79-208.54c11.34-15.38,28.47-24.2,46.99-24.2s35.64,8.82,46.99,24.2l153.79,208.54c1.26,1.71,2.37,2.46,2.81,2.66h452.63c.43-.2,1.55-.95,2.81-2.66l153.79-208.54c11.34-15.38,28.47-24.2,46.99-24.2s35.64,8.82,46.99,24.2l153.79,208.54c1.26,1.71,2.37,2.46,2.81,2.66,25.8.09,50.53,12.19,67.87,33.23ZM401.15,357.15l-96.32-130.61-96.32,130.61h192.65ZM557.12,705.08c0-23.65-15.02-42.82-33.55-42.82s-33.55,19.17-33.55,42.82v128.08c0,23.65,15.02,42.82,33.55,42.82s33.55-19.17,33.55-42.82v-128.08ZM825.61,974.66c-16.72-16.72-35.82-14.75-52.55,1.97l-36.04,56.27c-.57.57-1.11,1.15-1.64,1.74-.49-.55-1-1.08-1.53-1.61l-37.6-52.72c-16.72-16.72-34.26-22.25-50.99-5.53-16.72,16.72-16.72,43.84,0,60.56l28.02,28.02c1.74,1.74,3.6,3.29,5.54,4.66l42.48,46.4c7.35,8.03,20.01,8.03,27.37,0l41.37-45.19c2.68-1.68,5.21-3.67,7.54-6l28.02-28.02c16.72-16.72,16.72-43.84,0-60.56ZM982.26,705.08c0-23.65-16.05-42.82-35.85-42.82s-35.85,19.17-35.85,42.82v128.08c0,23.65,16.05,42.82,35.85,42.82s35.85-19.17,35.85-42.82v-128.08ZM1260.95,357.15l-96.32-130.61-96.32,130.61h192.65ZM2016.78,1184.42c6.85,11.65,10.33,25.05,10.33,39.83s-3.47,28.23-10.32,39.96c-6.86,11.75-16.53,21.04-28.73,27.61-12.16,6.55-26.09,9.87-41.39,9.87s-28.96-3.32-41.12-9.87c-12.21-6.57-21.88-15.86-28.73-27.61-6.85-11.72-10.32-25.17-10.32-39.96s3.48-28.19,10.33-39.83c6.86-11.65,16.52-20.89,28.73-27.46,12.16-6.55,26-9.87,41.12-9.87s29.22,3.32,41.39,9.87c12.2,6.58,21.87,15.81,28.73,27.46h0ZM1976.06,1255.6c7.69-7.86,11.59-18.41,11.59-31.34s-3.9-23.48-11.59-31.34c-7.68-7.85-17.57-11.83-29.39-11.83s-21.66,3.98-29.24,11.82c-7.61,7.87-11.47,18.41-11.47,31.35s3.86,23.49,11.47,31.35c7.58,7.84,17.42,11.82,29.25,11.82s21.6-3.87,29.39-11.83h0ZM2136.85,1006.94v-349.22c0-79.09-20.43-141.06-60.73-184.2-40.49-43.33-97.13-65.29-168.33-65.29-77.33,0-137.06,22.94-178,68.27v-61.73h-98.47v592.18h101.74v-334.51c0-56.95,14.16-100.24,42.09-128.68,27.88-28.39,67-42.78,116.29-42.78,45.42,0,81.21,13.39,106.38,39.81,25.29,26.56,38.11,66.73,38.11,119.39v346.77h100.92ZM3428.25,1263.04c-4.63,3.64-10.55,5.48-17.6,5.48-5.72,0-10-1.58-13.09-4.83-3.08-3.24-4.64-8.13-4.64-14.55v-66.97h39.11v-32.35h-39.11v-33.37h-39.19v133.5c0,16.68,4.68,29.62,13.9,38.45,9.19,8.81,22.29,13.28,38.93,13.28,6.58,0,12.93-.86,18.87-2.56s11.27-4.37,15.53-7.85l1.41-1.15-11.47-29.16-2.64,2.08ZM2287.28,1163.81c-11.2-11.1-26.51-16.72-45.52-16.72-11.79,0-22.71,2.24-32.48,6.65-8.69,3.93-16.08,9.31-21.98,16.01-4.95-7-11.41-12.46-19.25-16.25-8.78-4.25-18.95-6.4-30.21-6.4-10.31,0-19.84,1.81-28.32,5.39-6.46,2.73-12.17,6.43-17.04,11.03v-14.79h-37.55v151.05h39.19v-76.62c0-13.51,3.23-23.89,9.6-30.86,6.4-7,14.88-10.4,25.91-10.4,9.91,0,17.25,2.9,22.46,8.85,5.22,5.98,7.86,15.13,7.86,27.21v81.81h39.19v-76.62c0-13.33,3.28-23.67,9.74-30.72,6.5-7.09,14.93-10.54,25.78-10.54,9.91,0,17.25,2.9,22.46,8.85,5.22,5.98,7.86,15.13,7.86,27.21v81.81h39.19v-86.19c0-21.92-5.68-38.67-16.88-49.77h0ZM4244.91,505.87v-91.11h-322.44v91.11h110.35v409.96h-110.35v91.11h322.44v-91.11h-110.35v-409.96h110.35ZM3129.46,1182.63c6.77,11.38,10.2,24.83,10.2,39.98v2.06l-110.77,21.67c3.26,6.47,8.07,11.55,14.33,15.13,7.24,4.14,16.12,6.23,26.38,6.23,15.1,0,27.85-5.09,37.89-15.13l1.91-1.91,21.17,24.69-1.32,1.62c-6.63,8.14-15.25,14.37-25.62,18.52-10.28,4.11-22,6.2-34.84,6.2-16.38,0-31.04-3.32-43.55-9.86-12.58-6.57-22.44-15.87-29.31-27.62-6.85-11.72-10.32-25.17-10.32-39.96s3.38-27.94,10.04-39.66c6.67-11.74,16.01-21.03,27.75-27.61,11.72-6.56,25.15-9.89,39.92-9.89s26.97,3.09,38.5,9.18c11.57,6.12,20.88,14.99,27.65,26.37ZM3087.92,1187.13c-6.73-5.11-15.01-7.7-24.61-7.7-11.97,0-21.35,3.77-28.68,11.52-6.74,7.14-10.4,16.75-10.88,28.61l76.85-14.76c-2.42-7.18-6.67-13.12-12.68-17.68ZM3767.18,468.46c-38.85-39.98-93.24-60.25-161.66-60.25-43.88,0-83.48,8.75-117.71,26-29.24,14.75-53.14,34.98-71.25,60.27-15.42-24.73-36.92-44.77-64.12-59.7-32.16-17.63-70.76-26.57-114.75-26.57s-79.99,8.35-112.06,24.81c-22.38,11.49-41.44,26.3-56.96,44.22v-62.49h-98.47v592.18h101.74v-351.67c0-51.97,13.14-91.09,39.06-116.25,26-25.25,62.02-38.05,107.06-38.05,40.59,0,71.53,11.57,94.58,35.37,22.81,23.58,34.38,59.74,34.38,107.48v363.12h100.92v-351.67c0-52.54,12.88-91.8,38.28-116.7,25.45-24.95,60.91-37.6,105.39-37.6,40.11,0,72.67,12.09,96.77,35.93,24.07,23.82,36.27,59.79,36.27,106.92v363.12h100.92v-365.57c0-74.82-19.65-132.99-58.41-172.9h0ZM3298.89,1163.93c-11.56-11.17-27.05-16.84-46.04-16.84-11.02,0-21.09,1.81-29.93,5.38-6.82,2.76-12.81,6.56-17.89,11.35v-15.08h-37.54v151.05h39.19v-76.34c0-13.49,3.44-23.9,10.24-30.95,6.77-7.02,16.2-10.59,28.01-10.59,10.34,0,18.38,3,23.88,8.91,5.54,5.97,8.36,15.1,8.36,27.15v81.81h39.19v-86.19c0-21.75-5.87-38.46-17.44-49.66h0ZM2920.24,1148.73h37.55v126.39c0,52.84-27.34,79.62-81.27,79.62-14.2,0-27.87-1.83-40.61-5.43-12.85-3.63-23.65-8.99-32.09-15.93l-1.66-1.36,17.91-30.06,2.25,1.86c6.11,5.06,13.98,9.19,23.39,12.27,9.46,3.09,19.19,4.66,28.9,4.66,15.29,0,26.57-3.44,33.53-10.23,6.94-6.77,10.46-17.4,10.46-31.58v-1.7c-5.18,4.59-11.19,8.23-17.92,10.86-8.64,3.38-18.24,5.1-28.53,5.1-14.21,0-27.25-3.09-38.77-9.18-11.57-6.11-20.83-14.84-27.5-25.95-6.68-11.1-10.07-23.95-10.07-38.21s3.39-27.07,10.07-38.08c6.68-11.01,15.93-19.64,27.51-25.67,11.53-6,24.57-9.03,38.76-9.03,10.83,0,20.85,1.81,29.78,5.37,6.95,2.78,13.08,6.73,18.32,11.79v-15.52ZM2907.51,1191.9c-7.78-7.18-17.93-10.82-30.17-10.82s-22.66,3.64-30.44,10.82c-7.83,7.23-11.64,16.38-11.64,27.97s3.81,21.08,11.65,28.39c7.78,7.27,18.02,10.95,30.43,10.95s22.38-3.68,30.16-10.95c7.84-7.32,11.65-16.61,11.65-28.39s-3.81-20.74-11.64-27.97ZM2476.1,1182.63c6.77,11.38,10.2,24.83,10.2,39.98v2.06l-110.77,21.67c3.26,6.47,8.07,11.55,14.33,15.13,7.24,4.14,16.12,6.23,26.38,6.23,15.1,0,27.85-5.09,37.89-15.13l1.91-1.91,21.17,24.69-1.32,1.62c-6.63,8.14-15.25,14.37-25.62,18.52-10.28,4.11-22,6.2-34.84,6.2-16.39,0-31.04-3.32-43.55-9.86-12.58-6.57-22.44-15.87-29.31-27.62-6.85-11.72-10.32-25.17-10.32-39.96s3.38-27.94,10.04-39.66c6.67-11.74,16-21.03,27.75-27.61,11.72-6.56,25.15-9.89,39.92-9.89s26.97,3.09,38.5,9.18c11.57,6.12,20.87,14.99,27.65,26.37ZM2370.39,1219.58l76.85-14.76c-2.42-7.18-6.67-13.12-12.68-17.68-6.73-5.11-15-7.7-24.61-7.7-11.97,0-21.36,3.77-28.68,11.52-6.74,7.14-10.4,16.76-10.88,28.61ZM2755.53,1141.99c7.18,13.53,10.82,30.07,10.82,49.17v108.61h-40.55v-49.23h-94.55v49.23h-40.01v-108.61c0-19.11,3.64-35.65,10.82-49.17,7.22-13.6,17.56-24.03,30.71-30.98,13.07-6.91,28.55-10.41,46.02-10.41s32.95,3.5,46.02,10.41c13.16,6.96,23.49,17.38,30.71,30.99h0ZM2643.66,1149.55c-8.24,8.5-12.42,21.4-12.42,38.33v27.86h94.55v-27.86c0-16.93-4.18-29.83-12.42-38.33-8.22-8.48-19.95-12.78-34.85-12.78s-26.63,4.3-34.85,12.78ZM2824.53,865.91c-26.95,45.77-64.82,82.22-112.53,108.33-47.59,26.04-101.46,39.24-160.11,39.24s-113.34-13.2-160.92-39.24c-47.71-26.1-85.71-62.67-112.93-108.72-27.23-46.01-41.04-98.05-41.04-154.67s13.81-108.65,41.04-154.68c27.24-46.05,65.24-82.63,112.93-108.72,47.58-26.04,101.72-39.24,160.92-39.24s112.51,13.2,160.1,39.24c47.71,26.1,85.57,62.55,112.53,108.33h0c26.95,45.77,40.62,97.95,40.62,155.07s-13.67,109.31-40.62,155.07ZM2660.15,893.43c31.79-18.09,57.21-43.38,75.57-75.19,18.37-31.83,27.68-67.97,27.68-107.39s-9.31-75.56-27.68-107.4c-18.35-31.79-43.78-57.08-75.57-75.19-31.84-18.11-68.26-27.3-108.26-27.3s-76.75,9.2-109.14,27.33c-32.32,18.11-58.01,43.39-76.33,75.15-18.37,31.81-27.68,67.94-27.68,107.4s9.31,75.59,27.68,107.39c18.33,31.78,44.02,57.06,76.33,75.15,32.37,18.14,69.09,27.34,109.14,27.34s76.45-9.19,108.26-27.3Z"/>
  </g>
</svg>