<?xml version="1.0" encoding="UTF-8"?>
<svg id="Color" xmlns="http://www.w3.org/2000/svg" xmlns:xlink="http://www.w3.org/1999/xlink" viewBox="0 0 1453.03 1451.34">
  <defs>
    <style>
      .cls-1 {
        fill: none;
      }

      .cls-2 {
        fill: url(#_未命名漸層_174);
      }

      .cls-3 {
        clip-path: url(#clippath);
      }
    </style>
    <clipPath id="clippath">
      <path id="Icon" class="cls-1" d="M1427.87,390.3c-17.34-21.04-42.06-33.14-67.87-33.23-.43-.2-1.55-.95-2.81-2.66l-153.79-208.54c-11.34-15.38-28.47-24.2-46.99-24.2s-35.64,8.82-46.99,24.2l-153.79,208.54c-1.26,1.71-2.37,2.46-2.81,2.66h-452.63c-.43-.2-1.55-.95-2.81-2.66l-153.79-208.54c-11.34-15.38-28.47-24.2-46.99-24.2s-35.64,8.82-46.99,24.2l-153.79,208.54c-1.26,1.71-2.37,2.46-2.81,2.66-25.8.09-50.53,12.19-67.87,33.23C9.48,409.33.85,434.12.85,460.13v765.59c0,26,8.64,50.8,24.32,69.82,17.4,21.12,42.24,33.23,68.15,33.23h1266.41c25.9,0,50.74-12.11,68.15-33.23,15.68-19.02,24.32-43.82,24.32-69.82V460.13c0-26-8.64-50.8-24.32-69.82ZM200.29,357.07l96.32-130.61,96.32,130.61h-192.65ZM548.91,833.08c0,23.65-15.02,42.82-33.55,42.82s-33.55-19.17-33.55-42.82v-128.08c0-23.65,15.02-42.82,33.55-42.82s33.55,19.17,33.55,42.82v128.08ZM817.4,1035.14l-28.02,28.02c-2.33,2.33-4.86,4.32-7.54,6l-41.37,45.19c-7.35,8.03-20.01,8.03-27.37,0l-42.48-46.4c-1.94-1.38-3.8-2.92-5.54-4.66l-28.02-28.02c-16.72-16.72-16.72-43.84,0-60.56,16.72-16.72,34.26-11.2,50.99,5.53l37.6,52.72c.53.53,1.04,1.06,1.53,1.61.53-.59,1.08-1.18,1.64-1.74l36.04-56.27c16.72-16.72,35.82-18.7,52.55-1.97,16.72,16.72,16.72,43.84,0,60.56ZM974.05,833.08c0,23.65-16.05,42.82-35.85,42.82s-35.85-19.17-35.85-42.82v-128.08c0-23.65,16.05-42.82,35.85-42.82s35.85,19.17,35.85,42.82v128.08ZM1060.09,357.07l96.32-130.61,96.32,130.61h-192.65Z"/>
    </clipPath>
    <linearGradient id="_未命名漸層_174" data-name="未命名漸層 174" x1="49.46" y1="-58.83" x2="1384.01" y2="1531.63" gradientUnits="userSpaceOnUse">
      <stop offset="0" stop-color="#71c3ac"/>
      <stop offset=".16" stop-color="#60b3b6"/>
      <stop offset=".49" stop-color="#469ac9"/>
      <stop offset=".68" stop-color="#3c91d0"/>
    </linearGradient>
  </defs>
  <g id="Solid">
    <g id="I">
      <g class="cls-3">
        <rect class="cls-2" x="-20.12" y="-.45" width="1473.7" height="1473.7"/>
      </g>
    </g>
  </g>
</svg>