<?xml version="1.0" encoding="UTF-8"?>
<svg id="Black" xmlns="http://www.w3.org/2000/svg" viewBox="0 0 1453.03 1451.34">
  <defs>
    <style>
      .cls-1 {
        fill: #231815;
      }
    </style>
  </defs>
  <g id="Solid">
    <path id="I" class="cls-1" d="M1422.76,389.65c-17.34-21.04-42.06-33.14-67.87-33.23-.43-.2-1.55-.95-2.81-2.66l-153.79-208.54c-11.34-15.38-28.47-24.2-46.99-24.2s-35.64,8.82-46.99,24.2l-153.79,208.54c-1.26,1.71-2.37,2.46-2.81,2.66h-452.63c-.43-.2-1.55-.95-2.81-2.66l-153.79-208.54c-11.34-15.38-28.47-24.2-46.99-24.2s-35.64,8.82-46.99,24.2l-153.79,208.54c-1.26,1.71-2.37,2.46-2.81,2.66-25.8.09-50.53,12.19-67.87,33.23-15.68,19.03-24.32,43.82-24.32,69.82v765.59c0,26,8.64,50.8,24.32,69.82,17.4,21.12,42.24,33.23,68.15,33.23h1266.41c25.9,0,50.74-12.11,68.15-33.23,15.68-19.02,24.32-43.82,24.32-69.82V459.48c0-26-8.64-50.8-24.32-69.82ZM195.18,356.42l96.32-130.61,96.32,130.61h-192.65ZM543.8,832.43c0,23.65-15.02,42.82-33.55,42.82s-33.55-19.17-33.55-42.82v-128.08c0-23.65,15.02-42.82,33.55-42.82s33.55,19.17,33.55,42.82v128.08ZM812.29,1034.5l-28.02,28.02c-2.33,2.33-4.86,4.32-7.54,6l-41.37,45.19c-7.35,8.03-20.01,8.03-27.37,0l-42.48-46.4c-1.94-1.38-3.8-2.92-5.54-4.66l-28.02-28.02c-16.72-16.72-16.72-43.84,0-60.56,16.72-16.72,34.26-11.2,50.99,5.53l37.6,52.72c.53.53,1.04,1.06,1.53,1.61.53-.59,1.08-1.18,1.64-1.74l36.04-56.27c16.72-16.72,35.82-18.7,52.55-1.97,16.72,16.72,16.72,43.84,0,60.56ZM968.94,832.43c0,23.65-16.05,42.82-35.85,42.82s-35.85-19.17-35.85-42.82v-128.08c0-23.65,16.05-42.82,35.85-42.82s35.85,19.17,35.85,42.82v128.08ZM1054.98,356.42l96.32-130.61,96.32,130.61h-192.65Z"/>
  </g>
</svg>