<?xml version="1.0" encoding="UTF-8"?>
<svg id="Black" xmlns="http://www.w3.org/2000/svg" viewBox="0 0 1453.03 1451.34">
  <defs>
    <style>
      .cls-1 {
        fill: #231815;
      }
    </style>
  </defs>
  <g id="Standard">
    <path id="I" class="cls-1" d="M1428.33,390.01c-17.36-21.06-42.1-33.17-67.92-33.26-.43-.2-1.55-.95-2.81-2.66l-153.93-208.72c-11.35-15.39-28.49-24.22-47.03-24.22s-35.68,8.83-47.03,24.22l-153.93,208.72c-1.26,1.71-2.37,2.46-2.81,2.66h-453.02c-.44-.2-1.55-.95-2.81-2.66l-153.93-208.72c-11.35-15.39-28.49-24.22-47.03-24.22s-35.68,8.83-47.03,24.22l-153.93,208.72c-1.26,1.71-2.38,2.46-2.81,2.66-25.83.09-50.57,12.2-67.92,33.26C8.72,409.05.08,433.87.08,459.9v766.25c0,26.02,8.64,50.84,24.34,69.88,17.42,21.14,42.28,33.26,68.21,33.26h1267.51c25.93,0,50.79-12.12,68.21-33.26,15.69-19.04,24.34-43.86,24.34-69.88V459.9c0-26.02-8.64-50.84-24.34-69.88ZM1366.95,1206.35c0,20.55-16.66,37.22-37.22,37.22H123.01c-20.55,0-37.22-16.66-37.22-37.22V479.69c0-20.55,16.66-37.22,37.22-37.22h1206.72c20.55,0,37.22,16.66,37.22,37.22v726.66ZM557.89,704.98v128.19c0,23.67-19.19,42.86-42.86,42.86s-42.86-19.19-42.86-42.86v-128.19c0-23.67,19.19-42.86,42.86-42.86s42.86,19.19,42.86,42.86ZM981.1,704.98v128.19c0,23.67-19.19,42.86-42.86,42.86s-42.86-19.19-42.86-42.86v-128.19c0-23.67,19.19-42.86,42.86-42.86s42.86,19.19,42.86,42.86ZM817.33,974.8c16.74,16.74,16.74,43.88,0,60.61l-28.05,28.04c-2.33,2.33-4.87,4.32-7.55,6.01l-41.41,45.23c-7.36,8.04-20.03,8.04-27.39,0l-42.51-46.44c-1.94-1.38-3.8-2.93-5.54-4.67l-28.05-28.05c-16.74-16.74-16.74-43.87,0-60.61,16.74-16.74,43.88-16.74,60.61,0l28.05,28.05c.53.53,1.04,1.06,1.53,1.61.53-.59,1.08-1.18,1.65-1.75l28.05-28.04c16.74-16.74,43.88-16.74,60.61,0Z"/>
  </g>
</svg>