<?xml version="1.0" encoding="UTF-8"?>
<svg id="Black" xmlns="http://www.w3.org/2000/svg" viewBox="0 0 2636.22 2551.18">
  <defs>
    <style>
      .cls-1 {
        fill: #231815;
      }
    </style>
  </defs>
  <g id="Standard">
    <path id="V" class="cls-1" d="M2020.71,267.89c-17.36-21.06-42.1-33.17-67.92-33.26-.43-.2-1.55-.95-2.81-2.66l-153.93-208.72c-11.35-15.39-28.49-24.22-47.03-24.22s-35.68,8.83-47.03,24.22l-153.93,208.72c-1.26,1.71-2.37,2.46-2.81,2.66h-453.02c-.44-.2-1.55-.95-2.81-2.66L935.5,23.25c-11.35-15.39-28.49-24.22-47.03-24.22s-35.68,8.83-47.03,24.22l-153.93,208.72c-1.26,1.71-2.38,2.46-2.81,2.66-25.83.09-50.57,12.2-67.92,33.26-15.69,19.04-24.34,43.86-24.34,69.88v766.25c0,26.02,8.64,50.84,24.34,69.88,17.42,21.14,42.28,33.26,68.21,33.26h1267.51c25.93,0,50.79-12.12,68.21-33.26,15.69-19.04,24.34-43.86,24.34-69.88V337.77c0-26.02-8.64-50.84-24.34-69.88ZM1959.32,1084.23c0,20.55-16.66,37.22-37.22,37.22H715.38c-20.55,0-37.22-16.66-37.22-37.22V357.56c0-20.55,16.66-37.22,37.22-37.22h1206.72c20.55,0,37.22,16.66,37.22,37.22v726.66ZM1150.26,582.85v128.19c0,23.67-19.19,42.86-42.86,42.86s-42.86-19.19-42.86-42.86v-128.19c0-23.67,19.19-42.86,42.86-42.86s42.86,19.19,42.86,42.86ZM1573.47,582.85v128.19c0,23.67-19.19,42.86-42.86,42.86s-42.86-19.19-42.86-42.86v-128.19c0-23.67,19.19-42.86,42.86-42.86s42.86,19.19,42.86,42.86ZM1409.71,852.67c16.74,16.74,16.74,43.88,0,60.61l-28.05,28.04c-2.33,2.33-4.87,4.32-7.55,6.01l-41.41,45.23c-7.36,8.04-20.03,8.04-27.39,0l-42.51-46.44c-1.94-1.38-3.8-2.93-5.54-4.67l-28.05-28.05c-16.74-16.74-16.74-43.87,0-60.61,16.74-16.74,43.88-16.74,60.61,0l28.05,28.05c.53.53,1.04,1.06,1.53,1.61.53-.59,1.08-1.18,1.65-1.75l28.05-28.04c16.74-16.74,43.88-16.74,60.61,0ZM564.98,2299.32h40.55v196.45h-40.55v-82.05h-94v82.05h-40.55v-196.45h40.55v79.04h94v-79.04ZM786.92,2380.41h0c-6.86-11.65-16.53-20.89-28.73-27.46-12.17-6.55-26.09-9.87-41.39-9.87s-28.95,3.32-41.12,9.87c-12.21,6.57-21.87,15.81-28.73,27.46-6.85,11.64-10.33,25.04-10.33,39.83s3.47,28.24,10.32,39.96c6.86,11.75,16.53,21.04,28.73,27.61,12.16,6.55,25.99,9.87,41.12,9.87s29.23-3.32,41.39-9.87c12.2-6.57,21.87-15.86,28.73-27.61,6.85-11.73,10.32-25.17,10.32-39.96s-3.47-28.18-10.33-39.83ZM746.19,2451.58h0c-7.79,7.96-17.4,11.83-29.39,11.83s-21.66-3.98-29.25-11.82c-7.61-7.86-11.47-18.41-11.47-31.35s3.86-23.49,11.47-31.35c7.59-7.84,17.43-11.82,29.24-11.82s21.71,3.98,29.39,11.83c7.69,7.86,11.59,18.41,11.59,31.34s-3.9,23.48-11.59,31.34ZM416.56,2202.92v-346.77c0-52.67-12.82-92.84-38.11-119.39-25.17-26.42-60.96-39.81-106.38-39.81-49.29,0-88.42,14.39-116.29,42.78-27.93,28.44-42.09,71.74-42.09,128.68v334.51H11.94v-592.18h98.47v61.73c40.94-45.33,100.67-68.27,178-68.27,71.21,0,127.84,21.97,168.33,65.29,40.3,43.14,60.73,105.12,60.73,184.2v349.22h-100.92ZM2201.03,2456.95l11.47,29.16-1.41,1.15c-4.26,3.48-9.49,6.13-15.53,7.85s-12.29,2.56-18.87,2.56c-16.64,0-29.74-4.47-38.93-13.28-9.22-8.83-13.9-21.77-13.9-38.45v-133.5h39.19v33.37h39.11v32.35h-39.11v66.97c0,6.42,1.56,11.31,4.64,14.55,3.09,3.25,7.37,4.83,13.09,4.83,7.05,0,12.97-1.84,17.6-5.48l2.64-2.08ZM1057.42,2359.8c11.2,11.1,16.88,27.85,16.88,49.77v86.19h-39.19v-81.81c0-12.08-2.64-21.23-7.86-27.21-5.21-5.96-12.55-8.85-22.46-8.85-10.85,0-19.29,3.45-25.78,10.54-6.46,7.06-9.74,17.39-9.74,30.72v76.62h-39.19v-81.81c0-12.08-2.64-21.23-7.86-27.21-5.21-5.96-12.55-8.85-22.46-8.85-11.04,0-19.51,3.4-25.91,10.4-6.37,6.97-9.6,17.35-9.6,30.86v76.62h-39.19v-151.05h37.55v14.79c4.87-4.6,10.58-8.3,17.04-11.03,8.48-3.58,18.01-5.39,28.32-5.39,11.27,0,21.43,2.15,30.21,6.4,7.83,3.79,14.29,9.25,19.25,16.25,5.91-6.7,13.29-12.08,21.98-16.01,9.77-4.41,20.69-6.65,32.48-6.65,19.01,0,34.32,5.63,45.52,16.72h0ZM2515.2,1701.85v409.96h110.35v91.11h-322.44v-91.11h110.35v-409.96h-110.35v-91.11h322.44v91.11h-110.35ZM1909.8,2418.6c0-15.15-3.43-28.6-10.2-39.98-6.77-11.38-16.07-20.25-27.65-26.37-11.53-6.09-24.48-9.18-38.5-9.18-14.77,0-28.2,3.33-39.92,9.89-11.75,6.58-21.09,15.87-27.75,27.61-6.66,11.72-10.04,25.07-10.04,39.66s3.47,28.24,10.32,39.96c6.86,11.76,16.72,21.05,29.31,27.62,12.51,6.54,27.16,9.86,43.55,9.86,12.84,0,24.57-2.08,34.84-6.2,10.38-4.15,19-10.38,25.62-18.52l1.32-1.62-21.17-24.69-1.91,1.91c-10.04,10.04-22.79,15.13-37.89,15.13-10.27,0-19.14-2.1-26.38-6.23-6.26-3.58-11.07-8.66-14.33-15.13l110.77-21.67v-2.06ZM1793.89,2415.56c.49-11.86,4.14-21.48,10.88-28.61,7.32-7.75,16.7-11.52,28.68-11.52,9.6,0,17.88,2.59,24.61,7.7,6.01,4.56,10.26,10.5,12.68,17.68l-76.85,14.76ZM2147.82,1664.45c38.76,39.91,58.41,98.08,58.41,172.9v365.57h-100.92v-363.12c0-47.13-12.2-83.1-36.27-106.92-24.1-23.84-56.66-35.93-96.77-35.93-44.49,0-79.95,12.65-105.39,37.6-25.4,24.9-38.28,64.16-38.28,116.7v351.67h-100.92v-363.12c0-47.75-11.57-83.91-34.38-107.48-23.05-23.8-53.99-35.37-94.58-35.37-45.04,0-81.06,12.8-107.06,38.05-25.92,25.17-39.06,64.28-39.06,116.25v351.67h-101.74v-592.18h98.47v62.49c15.51-17.92,34.57-32.73,56.96-44.22,32.07-16.46,69.77-24.81,112.06-24.81s82.59,8.94,114.75,26.57c27.2,14.93,48.71,34.97,64.12,59.7,18.11-25.29,42.01-45.53,71.25-60.27,34.23-17.25,73.83-26,117.71-26,68.42,0,122.81,20.27,161.66,60.25h0ZM2069.02,2359.91c11.58,11.2,17.44,27.91,17.44,49.66v86.19h-39.19v-81.81c0-12.05-2.81-21.19-8.36-27.15-5.5-5.91-13.53-8.91-23.88-8.91-11.82,0-21.24,3.56-28.01,10.59-6.79,7.05-10.24,17.46-10.24,30.95v76.34h-39.19v-151.05h37.54v15.08c5.08-4.79,11.08-8.59,17.89-11.35,8.84-3.57,18.9-5.38,29.93-5.38,19,0,34.49,5.67,46.04,16.84h0ZM1690.38,2344.72v15.52c-5.23-5.05-11.37-9.01-18.32-11.79-8.93-3.57-18.95-5.37-29.78-5.37-14.2,0-27.24,3.04-38.76,9.03-11.58,6.03-20.83,14.66-27.51,25.67-6.68,11.01-10.07,23.82-10.07,38.08s3.39,27.11,10.07,38.21c6.68,11.1,15.93,19.83,27.5,25.95,11.52,6.09,24.57,9.18,38.77,9.18,10.29,0,19.89-1.71,28.53-5.1,6.73-2.63,12.74-6.28,17.92-10.86v1.7c0,14.18-3.52,24.8-10.46,31.58-6.96,6.79-18.25,10.23-33.53,10.23-9.71,0-19.43-1.57-28.9-4.66-9.41-3.08-17.28-7.21-23.39-12.27l-2.25-1.86-17.91,30.06,1.66,1.36c8.44,6.94,19.23,12.29,32.09,15.93,12.74,3.6,26.41,5.43,40.61,5.43,53.92,0,81.27-26.79,81.27-79.62v-126.39h-37.55ZM1677.64,2444.26c-7.78,7.27-17.93,10.95-30.16,10.95s-22.65-3.68-30.43-10.95c-7.84-7.32-11.65-16.61-11.65-28.39s3.81-20.75,11.64-27.97c7.78-7.18,18.02-10.82,30.44-10.82s22.38,3.64,30.17,10.82c7.83,7.23,11.64,16.38,11.64,27.97s-3.81,21.07-11.65,28.39ZM1256.44,2418.6c0-15.15-3.43-28.6-10.2-39.98-6.77-11.38-16.07-20.25-27.65-26.37-11.53-6.09-24.49-9.18-38.5-9.18-14.77,0-28.2,3.33-39.92,9.89-11.75,6.58-21.09,15.87-27.75,27.61-6.66,11.72-10.04,25.07-10.04,39.66s3.47,28.24,10.32,39.96c6.86,11.76,16.72,21.05,29.31,27.62,12.51,6.54,27.16,9.86,43.55,9.86,12.84,0,24.56-2.08,34.84-6.2,10.38-4.15,19-10.38,25.62-18.52l1.32-1.62-21.17-24.69-1.91,1.91c-10.04,10.04-22.79,15.13-37.89,15.13-10.27,0-19.14-2.1-26.38-6.23-6.26-3.58-11.07-8.66-14.33-15.13l110.77-21.67v-2.06ZM1140.53,2415.56c.49-11.86,4.14-21.47,10.88-28.61,7.32-7.75,16.7-11.52,28.68-11.52,9.6,0,17.88,2.59,24.61,7.7,6.01,4.56,10.27,10.5,12.68,17.68l-76.85,14.76ZM1525.66,2337.98h0c-7.22-13.6-17.56-24.03-30.71-30.99-13.07-6.91-28.56-10.41-46.02-10.41s-32.95,3.5-46.02,10.41c-13.16,6.96-23.49,17.38-30.71,30.98-7.18,13.52-10.82,30.06-10.82,49.17v108.61h40.01v-49.23h94.55v49.23h40.55v-108.61c0-19.1-3.64-35.64-10.82-49.17ZM1495.93,2411.72h-94.55v-27.86c0-16.93,4.18-29.83,12.42-38.33,8.22-8.48,19.95-12.78,34.85-12.78s26.63,4.3,34.85,12.78c8.24,8.5,12.42,21.4,12.42,38.33v27.86ZM1205.16,1751.76h0c-26.97-45.78-64.83-82.22-112.53-108.33-47.6-26.04-101.46-39.24-160.1-39.24s-113.34,13.2-160.92,39.24c-47.7,26.09-85.69,62.67-112.93,108.72-27.23,46.03-41.04,98.07-41.04,154.68s13.81,108.66,41.04,154.67c27.23,46.04,65.22,82.62,112.93,108.72,47.58,26.04,101.72,39.24,160.92,39.24s112.51-13.2,160.11-39.24c47.72-26.11,85.58-62.56,112.53-108.33,26.95-45.76,40.62-97.93,40.62-155.07s-13.67-109.3-40.62-155.07ZM1116.36,2014.22c-18.36,31.81-43.79,57.1-75.57,75.19-31.82,18.11-68.24,27.3-108.26,27.3s-76.78-9.2-109.14-27.34c-32.31-18.09-58-43.37-76.33-75.15-18.37-31.81-27.68-67.94-27.68-107.39s9.31-75.58,27.68-107.4c18.32-31.76,44-57.04,76.33-75.15,32.39-18.14,69.11-27.33,109.14-27.33s76.43,9.19,108.26,27.3c31.8,18.1,57.22,43.4,75.57,75.19,18.37,31.84,27.68,67.97,27.68,107.4s-9.31,75.56-27.68,107.39Z"/>
  </g>
</svg>